<svg xmlns="http://www.w3.org/2000/svg" width="38" height="38" viewBox="0 0 38.74 36.503"><g transform="translate(-277.708 -2361.309)"><path d="M0,18.252C0,28.332,8.672,36.5,19.37,36.5s19.37-8.172,19.37-18.252S30.068,0,19.37,0,0,8.172,0,18.252Z" transform="translate(277.708 2361.309)" fill="#0c257a"/><path d="M8.263,0C6.018,0,5.738.01,4.857.047A6.4,6.4,0,0,0,2.85.409a4.071,4.071,0,0,0-1.463.9A3.807,3.807,0,0,0,.434,2.686,5.465,5.465,0,0,0,.05,4.574C.01,5.405,0,5.67,0,7.784s.01,2.379.05,3.209a5.471,5.471,0,0,0,.384,1.89,3.808,3.808,0,0,0,.953,1.379,4.076,4.076,0,0,0,1.462.9,6.426,6.426,0,0,0,2.006.362c.882.037,1.162.047,3.406.047s2.525-.01,3.407-.047a6.391,6.391,0,0,0,2.005-.362,4.065,4.065,0,0,0,1.462-.9,3.808,3.808,0,0,0,.953-1.379,5.447,5.447,0,0,0,.384-1.89c.039-.83.05-1.095.05-3.208s-.01-2.38-.05-3.212a5.416,5.416,0,0,0-.384-1.888,3.808,3.808,0,0,0-.953-1.379,4.077,4.077,0,0,0-1.463-.9A6.414,6.414,0,0,0,11.666.047C10.785.01,10.5,0,8.261,0ZM9,1.4c1.54,0,1.835.011,2.6.044a4.808,4.808,0,0,1,1.533.269,2.573,2.573,0,0,1,.95.582,2.407,2.407,0,0,1,.619.9,4.092,4.092,0,0,1,.285,1.446c.039.82.047,1.065.047,3.144s-.008,2.326-.047,3.146a4.085,4.085,0,0,1-.284,1.445,2.4,2.4,0,0,1-.62.9,2.58,2.58,0,0,1-.95.582,4.808,4.808,0,0,1-1.533.269c-.871.037-1.133.046-3.339.046s-2.467-.009-3.338-.046a4.788,4.788,0,0,1-1.534-.269,2.573,2.573,0,0,1-.95-.582,2.4,2.4,0,0,1-.619-.894,4.091,4.091,0,0,1-.284-1.445c-.04-.82-.049-1.067-.049-3.145s.008-2.324.049-3.144a4.061,4.061,0,0,1,.284-1.445,2.4,2.4,0,0,1,.618-.9,2.583,2.583,0,0,1,.95-.583,4.824,4.824,0,0,1,1.535-.268C5.793,1.41,6.054,1.4,8.26,1.4H9ZM2.859,3.629a.964.964,0,0,0,.991.934.964.964,0,0,0,.991-.934A.964.964,0,0,0,3.851,2.7a.964.964,0,0,0-.991.934ZM4.084,7.722a4.117,4.117,0,0,0,4.176,4.06h.132a4.117,4.117,0,0,0,4.176-4.06A4.135,4.135,0,0,0,8.26,3.787,4.126,4.126,0,0,0,4.084,7.722Zm6.931.062a2.678,2.678,0,0,1-2.754,2.6h0A2.678,2.678,0,0,1,5.5,7.783,2.678,2.678,0,0,1,8.26,5.189,2.678,2.678,0,0,1,11.014,7.784Z" transform="translate(288.817 2371.776)" fill="#fff"/></g></svg>