<svg xmlns="http://www.w3.org/2000/svg" width="38" height="38" viewBox="0 0 38.74 36.503"><path d="M0,18.252C0,28.332,8.672,36.5,19.37,36.5s19.37-8.172,19.37-18.252S30.068,0,19.37,0,0,8.172,0,18.252Z" transform="translate(0)" fill="#0c257a"/><path d="M0,1.023A1.071,1.071,0,0,1,1.113,0H14.048a1.071,1.071,0,0,1,1.113,1.023v12.24a1.071,1.071,0,0,1-1.113,1.023H1.113A1.071,1.071,0,0,1,0,13.263ZM4.684,11.959V5.508H2.409v6.451ZM3.547,4.627A1.158,1.158,0,0,0,4.834,3.513,1.153,1.153,0,0,0,3.562,2.4,1.16,1.16,0,0,0,2.274,3.513,1.148,1.148,0,0,0,3.532,4.627ZM8.2,11.959v-3.6a1.378,1.378,0,0,1,.076-.523,1.239,1.239,0,0,1,1.167-.784c.823,0,1.152.591,1.152,1.459v3.451h2.275v-3.7c0-1.982-1.122-2.9-2.619-2.9A2.285,2.285,0,0,0,8.2,6.421v.022H8.183L8.2,6.421V5.508H5.923c.028.605,0,6.451,0,6.451Z" transform="translate(11.789 11.108)" fill="#fff"/></svg>