<svg xmlns="http://www.w3.org/2000/svg" width="38" height="38" viewBox="0 0 38.74 36.503"><g transform="translate(-285.111 -2245.701)"><path d="M0,18.252C0,28.332,8.672,36.5,19.37,36.5s19.37-8.172,19.37-18.252S30.068,0,19.37,0,0,8.172,0,18.252Z" transform="translate(285.111 2245.701)" fill="#0c257a"/><path d="M8.888,2.413C7.829,1.063,6.657,0,5.159,0,2.331,0,0,3.393,0,7.432,0,9.9,1.126,11.44,3.148,11.44c1.762,0,2.735-.932,4.481-3.684l.762-1.208.135-.212q.3-.474.605-.944L10.476,7.63c1.91,3.147,2.986,3.81,4.48,3.81,2.076,0,3.316-1.522,3.316-3.937,0-3.857-2.278-7.5-5.25-7.5a4.018,4.018,0,0,0-2.1.569A8.047,8.047,0,0,0,8.888,2.413ZM7.159,4.806,6.089,6.49c-1.676,2.539-2.1,3.088-2.98,3.088-.919,0-1.365-.741-1.365-2.02,0-3.353,1.575-6.082,3.542-6.082.947,0,1.744.7,2.709,2.1l-.007.009q-.4.558-.83,1.219ZM12.738,1.89a2.444,2.444,0,0,1,.308-.019c1.768,0,3.25,2.864,3.25,5.664,0,1.311-.529,2.044-1.416,2.044-.862,0-1.4-.513-2.947-2.8Q11.01,5.4,10.066,4.042C11.156,2.572,11.91,2,12.738,1.889Z" transform="translate(295.345 2258.233)" fill="#fff" fill-rule="evenodd"/></g></svg>