<svg xmlns="http://www.w3.org/2000/svg" width="84.113" height="71.132" viewBox="0 0 84.113 71.132"><g transform="translate(-36.834 -26.132)"><circle cx="31.084" cy="31.084" r="31.084" transform="translate(42.114 35.095)" fill="#d8f9ed"/><g transform="translate(38.669 26.131)"><g transform="translate(18.026 22.597) rotate(-26.79)"><g transform="translate(0 0)"><path d="M47.15,17.158,6.7.374A4.841,4.841,0,0,0,.153,6.042l3.6,14.12H21.382a1.469,1.469,0,0,1,0,2.938H3.753L.153,37.218A4.841,4.841,0,0,0,6.7,42.886L47.15,26.1a4.841,4.841,0,0,0,0-8.943Z" transform="translate(0 0)" fill="#41be90"/></g></g><line x2="26.071" transform="translate(0 49.189) rotate(-26.79)" fill="none" stroke="#41be90" stroke-linecap="round" stroke-width="2.731"/><line x2="18.049" transform="translate(9.872 50.945) rotate(-26.79)" fill="none" stroke="#fba333" stroke-linecap="round" stroke-width="2.731"/><line x2="11.03" transform="translate(18.85 53.151) rotate(-26.79)" fill="none" stroke="#41be90" stroke-linecap="round" stroke-width="2.731"/></g></g></svg>