<svg xmlns="http://www.w3.org/2000/svg" width="64" height="64" viewBox="0 0 64 64"><g transform="translate(-1 -1)"><path d="M61.1,1H4.9A3.971,3.971,0,0,0,1,4.9V51.5a3.9,3.9,0,0,0,3.9,3.9H61.1A3.9,3.9,0,0,0,65,51.5V4.9A3.9,3.9,0,0,0,61.1,1ZM37.4,51.1H28.7a1,1,0,1,1,0-2h8.7a1,1,0,0,1,0,2ZM63,44.7H3V4.9A1.967,1.967,0,0,1,4.9,3H61.1A1.967,1.967,0,0,1,63,4.9ZM46.5,63H43V57.5H23.1V63H19.6a1,1,0,0,0-1,1,.945.945,0,0,0,1,1H46.5a1,1,0,0,0,1-1A1.075,1.075,0,0,0,46.5,63Z" fill="#1d2a8f"/><path d="M31.1,26.2a2.958,2.958,0,0,1-1-.2L19,21.8V32.2c0,3.6,9.3,3.8,12.1,3.8s12.1-.3,12.1-3.8V21.8L32.2,26A3.6,3.6,0,0,1,31.1,26.2Z" fill="#1d2a8f"/><path d="M50.5,16.3H46.9L31.5,10.5a.854.854,0,0,0-.7,0L15.2,16.4a.961.961,0,0,0-.6.9,1.013,1.013,0,0,0,.6.9l15.6,5.9c.1,0,.2.1.3.1a.756.756,0,0,0,.4-.1l15.4-5.8h2.7V33.6a.945.945,0,0,0,1,1,1,1,0,0,0,1-1V17.3a1.09,1.09,0,0,0-1.1-1Z" fill="#1d2a8f"/></g></svg>