<svg xmlns="http://www.w3.org/2000/svg" width="54.507" height="54.519" viewBox="0 0 54.507 54.519"><g transform="translate(-0.056)"><path d="M52.966,28.975H51.289A24.013,24.013,0,0,0,31.75,6.988a5.627,5.627,0,0,0,.457-2.2,4.791,4.791,0,0,0-9.581,0,5.627,5.627,0,0,0,.457,2.2A24.22,24.22,0,0,0,3.331,28.975H1.653a1.56,1.56,0,0,0-1.6,1.554,1.6,1.6,0,0,0,1.6,1.6H52.966a1.6,1.6,0,0,0,1.6-1.6,1.56,1.56,0,0,0-1.6-1.554Zm-25.55-22.4a1.77,1.77,0,0,1-1.6-1.785,1.6,1.6,0,0,1,3.194,0A1.769,1.769,0,0,1,27.416,6.576ZM4.847,38.513a1.581,1.581,0,0,0-1.6,1.6v12.8a1.581,1.581,0,0,0,1.6,1.6H9.637V38.513Zm44.739-1.367a3.193,3.193,0,0,0-4.516,0l-9.145,9.1a6.331,6.331,0,0,1-4.262,1.846H27.288a1.6,1.6,0,1,1,0-3.194h4.918A3.2,3.2,0,0,0,35.4,41.707a3.167,3.167,0,0,0-3.194-3.151H29.013a1.847,1.847,0,0,1-1.437-.383,16.772,16.772,0,0,0-1.757-1.48A11.386,11.386,0,0,0,14.162,35.9a2.48,2.48,0,0,0-1.331,2.2V54.507c20.312.027,18.454,0,18.576,0a12.688,12.688,0,0,0,9.034-3.743l9.145-9.145a3.141,3.141,0,0,0,0-4.474Z" fill="#1d2a8f"/></g></svg>