<svg xmlns="http://www.w3.org/2000/svg" xmlns:xlink="http://www.w3.org/1999/xlink" width="1918.998" height="725.756" viewBox="0 0 1918.998 725.756"><defs><linearGradient id="a" y1="0.5" x2="1" y2="0.5" gradientUnits="objectBoundingBox"><stop offset="0" stop-color="#1d2a8f"/><stop offset="0.005" stop-color="#1d2a8f"/><stop offset="0.991" stop-color="#2c5ca5"/><stop offset="1" stop-color="#ff7600"/></linearGradient><linearGradient id="b" y1="0.5" x2="1" y2="0.5" gradientUnits="objectBoundingBox"><stop offset="0" stop-color="#1d2a8f"/><stop offset="0.005" stop-color="#1d2a8f"/><stop offset="1" stop-color="#1d2a8f"/></linearGradient></defs><g transform="translate(-0.001 0)"><path d="M950.66,669.731c-5.892,53.76-66.39,84.26-120.3,88.678-93.616,7.635-185.538-33.2-260.662-89.6C494.574,612.378,432.6,540.673,365.64,474.758c-67.763-67.787-136.946-113.385-229.864-136.771-26.233-6.588-53.411-12.429-79.018-21.364V33.571h490.3c30.5,21.914,54.383,50.191,65.864,86.68,13.578,43.152,6.588,89.7,9.034,134.875C627.9,365.116,695.012,469.84,792.5,521.2c34.292,18.1,71.979,30,103.951,51.963C928.4,595.131,954.877,631.171,950.66,669.731Z" transform="translate(-56.757 -33.571)" fill="url(#a)"/><path d="M1567.386,134.2V534.433c-55.4-56.174-128.384-97.954-206.824-118.191-146.088-37.7-305.857-7.025-437.532,63.839-105.1,56.579-196.4,138.2-310.645,175.669C540.136,679.456,439.3,671.71,413.7,603.332,390.42,541.141,450.3,476.843,515,452.585s137.614-25.964,199.843-55.456c81.088-38.423,130.727-117.006,196.7-175.958,105.619-94.427,253.81-137.1,398.865-141.754C1398.684,76.58,1494.279,90.98,1567.386,134.2Z" transform="translate(351.613 57.86)" fill="url(#b)"/></g></svg>