<svg xmlns="http://www.w3.org/2000/svg" width="55.514" height="59.986" viewBox="0 0 55.514 59.986"><g transform="translate(-6.087 -4)"><path d="M51.76,4H32.511a8.58,8.58,0,0,0-8.569,8.569V15.7a1.071,1.071,0,1,0,2.142,0V12.569a6.432,6.432,0,0,1,6.427-6.427H51.76a6.432,6.432,0,0,1,6.427,6.427V53.263h-32.1V48.315a1.071,1.071,0,0,0-2.142,0v7.1a8.58,8.58,0,0,0,8.569,8.569H51.76a8.58,8.58,0,0,0,8.569-8.569V12.569A8.58,8.58,0,0,0,51.76,4ZM44.819,59.476H39.463a1.071,1.071,0,0,1,0-2.142h5.356a1.071,1.071,0,1,1,0,2.142Z" transform="translate(1.271)" fill="#1d2a8f"/><path d="M13.751,16.062h3.567L21.2,31.541H20.36a3.278,3.278,0,1,0,0,6.556H40.188a1.071,1.071,0,1,0,0-2.142H20.36a1.135,1.135,0,0,1,0-2.271H38.6a3.271,3.271,0,0,0,3.106-2.239l2.935-8.816a3.274,3.274,0,0,0-3.106-4.306H20.092l-.9-3.6a1.068,1.068,0,0,0-1.039-.8h-4.4a1.071,1.071,0,0,0,0,2.142ZM20.414,38.4a3.519,3.519,0,1,0,3.524,3.524A3.519,3.519,0,0,0,20.414,38.4Zm17.139,0a3.519,3.519,0,1,0,3.524,3.524A3.519,3.519,0,0,0,37.553,38.4ZM7.159,21.5H12.43a1.071,1.071,0,1,0,0-2.142H7.161a1.071,1.071,0,1,0,0,2.142Z" transform="translate(0 0.706)" fill="#1d2a8f"/><path d="M7.159,25.142h7.464a1.071,1.071,0,1,0,0-2.142H7.159a1.071,1.071,0,1,0,0,2.142Zm11.614,3.214A1.071,1.071,0,0,0,17.7,27.285H7.158a1.071,1.071,0,1,0,0,2.142H17.7a1.071,1.071,0,0,0,1.071-1.071Z" transform="translate(0 1.352)" fill="#1d2a8f"/></g></svg>