<svg xmlns="http://www.w3.org/2000/svg" width="755.312" height="578.398" viewBox="0 0 755.312 578.398"><g transform="translate(-58.189 -2539.258)"><path d="M.526,1.121A99.626,99.626,0,0,1,55.952,27.3a42.9,42.9,0,0,1,8.424,10.475,24.608,24.608,0,0,1,2.844,12.635c-.1,4.1-.68,8.276.216,12.326a15.067,15.067,0,0,0,7.495,9.781c4.589,2.638,9.852,3.469,15.027,4.1,5.746.7,11.725,1.345,16.7,4.568.6.391,1.173-.567.572-.957-8.654-5.607-19.6-3.567-28.909-7.309-4.342-1.746-8.184-4.812-9.544-9.446-1.189-4.053-.6-8.363-.458-12.51A26.259,26.259,0,0,0,66,38.505a39.664,39.664,0,0,0-7.991-10.761A96.656,96.656,0,0,0,33.444,10.159,101.392,101.392,0,0,0,.536.005C-.174-.086-.18,1.03.526,1.12Z" transform="translate(118.622 2989.592)" fill="#fff"/><path d="M2.617,19.449A14.948,14.948,0,0,0,5.336,9.5,14.948,14.948,0,0,0,.969.164C.458-.34-.348.431.164.935A13.841,13.841,0,0,1,4.228,9.63,13.841,13.841,0,0,1,1.66,18.878c-.419.582.541,1.151.957.572Z" transform="translate(167.313 2992.535)" fill="#fff"/><path d="M.413,1.237a110.1,110.1,0,0,1,52,43.417,47.414,47.414,0,0,1,6.1,13.547,27.2,27.2,0,0,1-.473,14.3c-1.248,4.354-3.029,8.662-3.2,13.243a16.651,16.651,0,0,0,5.3,12.546c4.174,4.1,9.572,6.452,14.93,8.57,5.95,2.352,12.166,4.7,16.589,9.531.536.585,1.413-.281.878-.865-7.7-8.4-19.974-9.269-28.885-15.86-4.158-3.076-7.414-7.423-7.579-12.758-.144-4.665,1.688-9.11,2.99-13.507a29.019,29.019,0,0,0,.983-13.969A43.834,43.834,0,0,0,54.486,45.7a106.819,106.819,0,0,0-21.38-25.642A112.052,112.052,0,0,0,.735.047C0-.249-.316.943.413,1.237Z" transform="translate(610.137 2985.753)" fill="#fff"/><path d="M21.2,95.8a9.906,9.906,0,0,0,9.094-15.024l-12.94-75.3L0,0,16.083,77.84A9.907,9.907,0,0,0,21.2,95.8Z" transform="translate(556.879 2755.102)" fill="#ffb6b6"/><path d="M0,41.409,17.634,98.127l17.616,82.212,22.768-5L41.571,99.161S31.056,33.532,29.377,16.432,18.216,0,18.216,0L7.467,8.117Z" transform="translate(527.025 2631.808)" fill="#0c257a"/><path d="M41.276,92.079,92.835,51.988a3.845,3.845,0,0,0,.674-5.389L58.429,1.481A3.845,3.845,0,0,0,53.04.807L1.481,40.9a3.845,3.845,0,0,0-.674,5.389L35.887,91.4a3.845,3.845,0,0,0,5.389.674Z" transform="translate(501.405 2688.807)" fill="#3f3d56"/><path d="M37.3,83.692,84.488,47a3.414,3.414,0,0,0,.6-4.785l-31.8-40.9A3.414,3.414,0,0,0,48.5.716L1.315,37.407a3.414,3.414,0,0,0-.6,4.785l31.8,40.9a3.414,3.414,0,0,0,4.785.6Z" transform="translate(505.662 2693.046)" fill="#fff"/><path d="M17.419,22.159a.853.853,0,0,0,.15-1.2L1.525.329A.852.852,0,1,0,.179,1.376L16.223,22.009a.853.853,0,0,0,1.2.15Z" transform="translate(566.545 2716.849)" fill="#e4e4e4"/><path d="M17.419,22.159a.853.853,0,0,0,.15-1.2L1.525.329A.852.852,0,0,0,.179,1.376L16.223,22.009a.853.853,0,0,0,1.2.15Z" transform="translate(563.886 2718.916)" fill="#e4e4e4"/><path d="M8.331,10.471a.853.853,0,0,0,.15-1.2L1.526.33A.852.852,0,1,0,.18,1.377l6.954,8.944a.853.853,0,0,0,1.2.15Z" transform="translate(561.227 2720.982)" fill="#e4e4e4"/><path d="M26.7,34.1a.853.853,0,0,0,.15-1.2L1.525.329A.852.852,0,0,0,.179,1.376L25.507,33.95a.853.853,0,0,0,1.2.15Z" transform="translate(539.27 2714.906)" fill="#e4e4e4"/><path d="M26.7,34.1a.853.853,0,0,0,.15-1.2L1.525.329A.852.852,0,0,0,.179,1.376L25.507,33.95a.853.853,0,0,0,1.2.15Z" transform="translate(536.611 2716.973)" fill="#e4e4e4"/><path d="M26.7,34.1a.853.853,0,0,0,.15-1.2L1.525.329A.852.852,0,0,0,.179,1.376L25.507,33.95a.853.853,0,0,0,1.2.15Z" transform="translate(530.575 2721.667)" fill="#e4e4e4"/><path d="M26.7,34.1a.853.853,0,0,0,.15-1.2L1.525.329A.852.852,0,0,0,.179,1.376L25.507,33.95a.853.853,0,0,0,1.2.15Z" transform="translate(527.917 2723.734)" fill="#e4e4e4"/><path d="M26.7,34.1a.853.853,0,0,0,.15-1.2L1.525.329A.852.852,0,0,0,.179,1.376L25.507,33.949a.853.853,0,0,0,1.2.15Z" transform="translate(521.88 2728.427)" fill="#e4e4e4"/><path d="M26.7,34.1a.853.853,0,0,0,.15-1.2L1.524.327A.852.852,0,0,0,.178,1.374L25.5,33.947a.853.853,0,0,0,1.2.15Z" transform="translate(519.223 2730.497)" fill="#e4e4e4"/><path d="M0,.35A.35.35,0,1,0,.35,0,.35.35,0,0,0,0,.35Z" transform="translate(587.904 2801.724)" fill="#fff"/><path d="M32.138,0C14.533,0,1.36,14.307.261,31.878-2.311,73.014,14.533,63.756,32.138,63.756c16.1,0,61.16,10.91,45.338-22.562A84.273,84.273,0,0,1,71.464,22C68.319,6.684,47.176,0,32.138,0Z" transform="translate(465.793 2539.258)" fill="#2f2e41"/><path d="M0,57.858H15L22.138,0H0Z" transform="translate(481.52 2994.315)" fill="#ffb6b6"/><path d="M0,46.428,12.037,55.38,52.288,13.211,34.523,0Z" transform="translate(392.407 2986.815)" fill="#ffb6b6"/><path d="M71.2,0H14.16L0,42.6,71.2,53.69Z" transform="translate(459.444 2732.204)" fill="#ffb6b6"/><path d="M42.974,0S14.514,24.589,27.645,94.685l16.031,68.682L0,239.2l22.208,12.114L76.031,176.5l24.629-57.774L113.688,17.473Z" transform="translate(421.083 2753.66)" fill="#2f2e41"/><path d="M0,33.145l4.711,80.435,24.877-8.566,5.011-78.5L32.888,0Z" transform="translate(475.282 2888.852)" fill="#2f2e41"/><path d="M63.519,0,36,1.074,25.027,19.283,0,24.169,14.94,99.753l-2.747,43.022,24.92-.152a72.89,72.89,0,0,1,48.772,18.323L85.139,105.1,95.858,63.412,93.449,19.7,73.316,17.183Z" transform="translate(452.297 2611.838)" fill="#0c257a"/><path d="M0,25.9A25.9,25.9,0,1,0,25.9,0,25.9,25.9,0,0,0,0,25.9Z" transform="translate(474.665 2551.197)" fill="#ffb6b6"/><path d="M45.117,4.337A29.672,29.672,0,0,0,.005,30.234c13.2,3.314,27.066,5.85,41.142.793l3.324-8.136,1.96,8.142c4.287,1.752,8.584,3.235,12.882-.017a30.3,30.3,0,0,0-14.2-26.678Z" transform="translate(473.042 2546.359)" fill="#2f2e41"/><path d="M38.451,3.219A3.869,3.869,0,0,0,34.638,0H9.881A3.834,3.834,0,0,0,6.946,1.357,5.875,5.875,0,1,0,8.461,12.408L11.353,36.7a3.868,3.868,0,0,0,3.7,2.731h16.1a3.868,3.868,0,0,0,3.7-2.731L38.336,5.006a3.869,3.869,0,0,0,.116-1.788ZM5.9,11.325a4.195,4.195,0,0,1,0-8.389c.077,0,.148.019.224.023a3.828,3.828,0,0,0,.059,2.048l1.772,5.759a4.141,4.141,0,0,1-2.054.56Z" transform="translate(418.753 2801.833)" fill="#0c257a"/><path d="M16.974,92.966A9.853,9.853,0,0,0,15.6,77.92L31.291,0,13.967,5.562,1.41,80.931A9.906,9.906,0,0,0,16.974,92.966Z" transform="translate(415.843 2748.317)" fill="#ffb6b6"/><path d="M50.551,8.117,39.8,0S30.321-.668,28.641,16.432,16.447,99.161,16.447,99.161L0,175.342l22.768,5L40.384,98.127,58.018,41.409Z" transform="translate(412.495 2636.002)" fill="#0c257a"/><path d="M0,6.085A6.084,6.084,0,1,0,6.084,0,6.085,6.085,0,0,0,0,6.085Z" transform="translate(549.728 2702.881)" fill="#0c257a"/><path d="M48.945,0,0,123.447l44.551,131.5L69.3,252.735,41.842,131.563l43.1-63.032,1.25,74.713L96.15,254.555h20.105c13.863-27.141,9.567-104.268,9.567-104.268l11.466-128.47Z" transform="translate(635.758 2849.357)" fill="#2f2e41"/><path d="M0,29.571A29.571,29.571,0,1,0,29.571,0,29.571,29.571,0,0,0,0,29.571Z" transform="translate(731.468 2607.446)" fill="#ffb8b8"/><path d="M1.348,192.887s-2.069,1.034-1.08,1.27c82.4,19.7,101.4,11.141,101.4,11.141l-.9-29.319L130.46,41.742,105.121,18.18,97.294,4.758,67.792,0,55.982,12.526,31.723,22.936Z" transform="translate(677.332 2671.833)" fill="#ccc"/><path d="M.851.517C.758.349.693.172.612,0Q.309.429,0,.851Z" transform="translate(791.787 2652.946)" fill="#2f2e41"/><path d="M.011,26.5a62.766,62.766,0,0,0,2,16.27c.262-3.217.769-6.885,3.374-8.662a9.991,9.991,0,0,1,4.544-1.318,312.865,312.865,0,0,1,35.492-2.216c2.352-.013,4.86.048,6.81,1.408C55.126,34,55.765,38.1,55.74,41.7c-.024,3.415-.333,7.043,1.1,10.075,3.6-5.072,6.615-10.779,7.244-17.02.665-6.592-1.853-13.85-7.393-17.175l5.725-3.472-4.906-1.282,4.054-3.474c-3.012.429-6.456.732-8.722-1.367a19.963,19.963,0,0,1-2.137-2.776C47.89,1.477,43.053-.22,38.479.023s-8.918,2.2-12.827,4.671a18.013,18.013,0,0,0-13.506-.012,18.868,18.868,0,0,0-9.872,9.538A29.99,29.99,0,0,0,.011,26.5Z" transform="translate(729.35 2601.167)" fill="#2f2e41"/><path d="M0,46.543A46.542,46.542,0,1,0,46.542,0,46.543,46.543,0,0,0,0,46.543Z" transform="translate(675.875 2868.145)" fill="#fff"/><path d="M25.914,5.214A47.567,47.567,0,1,0,76,85.7c.838-.621,1.644-1.272,2.441-1.944A47.554,47.554,0,0,0,58.281,1.221C57.112.941,55.933.714,54.723.538A47.642,47.642,0,0,0,25.914,5.214ZM15.4,79.758A45.509,45.509,0,0,1,47.576,2.069a45.022,45.022,0,0,1,5.564.341c1.179.145,2.338.331,3.5.569A45.483,45.483,0,0,1,76.929,82.32c-.8.683-1.613,1.324-2.461,1.944A45.456,45.456,0,0,1,15.4,79.758Z" transform="translate(674.84 2867.111)" fill="#3f3d56"/><path d="M3.028,6.206H48.685a3.028,3.028,0,0,0,3.028-3.029V3.029A3.028,3.028,0,0,0,48.685,0H3.028A3.028,3.028,0,0,0,0,3.029v.149A3.028,3.028,0,0,0,3.028,6.206Z" transform="translate(696.56 2899.174)" fill="#0c257a"/><path d="M3.028,6.206H48.685a3.028,3.028,0,0,0,3.028-3.029V3.029A3.028,3.028,0,0,0,48.685,0H3.028A3.028,3.028,0,0,0,0,3.029v.149A3.028,3.028,0,0,0,3.028,6.206Z" transform="translate(696.56 2911.586)" fill="#0c257a"/><path d="M3.028,6.206H48.685a3.028,3.028,0,0,0,3.028-3.029V3.029A3.028,3.028,0,0,0,48.685,0H3.028A3.028,3.028,0,0,0,0,3.029v.149A3.028,3.028,0,0,0,3.028,6.206Z" transform="translate(696.56 2923.998)" fill="#0c257a"/><path d="M33.917,0,1.837,24.532,0,119.853,6.516,237.989l3.578,21.176-1.572,7.162a12.076,12.076,0,0,0,6.34,13.363l-2.121,16.339H40.164L50.593,225.8l3.926-7.573-3-10.81,3.577-15.182,2.264-88.167,12.3,62.956v8.354l6.041,15.159,1.3,103.245h24.456l12.018-7.412-4.3-9.47,10.6-114.044-7.216-12.986,5.5-18.335L97.839,8.488Z" transform="translate(179.818 2809.171)" fill="#2f2e41"/><path d="M0,25.479A25.478,25.478,0,1,0,25.478,0,25.478,25.478,0,0,0,0,25.479Z" transform="translate(205.855 2608.7)" fill="#9e616a"/><path d="M15.192,57.453A10.965,10.965,0,0,0,25.57,41.016l-6.482-34.6L0,0,9.907,37.468a10.965,10.965,0,0,0,5.285,19.985Z" transform="translate(278.838 2812.387)" fill="#9e616a"/><path d="M0,73.514,17.352,163.53l21.69-9.761S27.112,38.809,27.112,26.879s-9.76-24.944-9.76-24.944L13.858,0,9.76.85Z" transform="translate(266.813 2685.747)" fill="#e6e6e6"/><path d="M4.913,43.018s2.006-3.139,3.339-15.878S27.482,24.4,43.477,25.554,52.9,48.565,52.9,48.565s1.328-1.158,5.327-11.581,0-22,0-22c-1.2-5.547-6.666-3.474-6.666-3.474-3.8-7.863-10.748-7.863-10.748-7.863C28.074-5.624,15.576,5.714,15.576,5.714c-14.66,1.158-8,13.9-8,13.9C-7.748,24.823,4.913,43.018,4.913,43.018Z" transform="translate(201.442 2595.886)" fill="#2f2e41"/><path d="M57.258,139.834a7.8,7.8,0,0,0,5.212-1.988l77.1-68.638a7.863,7.863,0,0,0,.644-11.089L90.826,2.629a7.862,7.862,0,0,0-11.089-.645L2.632,70.623a7.854,7.854,0,0,0-.644,11.088L51.382,137.2a7.8,7.8,0,0,0,5.411,2.619c.156.01.311.014.466.014Z" transform="translate(58.693 2832.189)" fill="#fff"/><path d="M57.764,140.843a8.3,8.3,0,0,0,5.547-2.116l77.1-68.638a8.37,8.37,0,0,0,.686-11.8L91.707,2.8a8.37,8.37,0,0,0-11.8-.686L2.8,70.749a8.36,8.36,0,0,0-.686,11.8l49.394,55.49a8.307,8.307,0,0,0,5.759,2.788c.166.009.331.014.5.014ZM85.46,2.017A6.323,6.323,0,0,1,90.2,4.139l49.394,55.49a6.347,6.347,0,0,1-.52,8.952l-77.1,68.638a6.338,6.338,0,0,1-8.951-.521L3.623,81.208a6.34,6.34,0,0,1,.52-8.95L81.248,3.619a6.314,6.314,0,0,1,4.212-1.6Z" transform="translate(58.189 2831.685)" fill="#3f3d56"/><path d="M3.4,60.677a3.382,3.382,0,0,0,2.258-.86L66.183,5.94A3.4,3.4,0,1,0,61.663.863L1.139,54.741A3.4,3.4,0,0,0,3.4,60.677Z" transform="translate(107.681 2884.733)" fill="#0c257a"/><path d="M22.825,54.377a10.906,10.906,0,0,0-5.966-15.622L16.793,0,0,11.116l2.637,35.1a10.965,10.965,0,0,0,20.188,8.163Z" transform="translate(157.472 2814.319)" fill="#9e616a"/><path d="M24.7,7.232,17.2,0,11.688,3.978s-5.422,6.507-9.76,26.029,0,126.89,0,126.89l23.859-3.254-3.253-56.4,9.76-47.719Z" transform="translate(154.042 2689.985)" fill="#e6e6e6"/><path d="M13.976,102.056l3.256,24.1-5.079,5.079,3.028,3.029,1.987,11.383-2,12.682s-2,17.324-1.19,15.551c15.4-33.55,96.875-13.3,96.875-13.3l-1.159-8.692-4.668-5.514,3.591-2.566-1.295-9.709s-2.3-8.925-1.332-9.991,3.074-2.972,3.074-2.972l-3.028-7.067,4.442-91.9-26.65-9.053L73.731,0,42.438.234,25.277,16.152,0,28.226Z" transform="translate(167.666 2663.523)" fill="#0c257a"/><path d="M6.4,63.225A11.773,11.773,0,0,0,23.466,51.2l7.828-36.973L15.014,0,9.4,41.232A11.774,11.774,0,0,0,6.4,63.225Z" transform="translate(740.07 2838.477)" fill="#ffb8b8"/><path d="M19.886,68.024,0,164.426l25.528-.74s35.54-118.9,40.456-130.728.6-28.754.6-28.754L63.917.845,59.5,0Z" transform="translate(745.165 2712.821)" fill="#2f2e41"/><path d="M20.381,58.186A11.71,11.71,0,0,0,18.3,40.352L28.458,0,8.046,7.135,1.524,44.36A11.773,11.773,0,0,0,20.381,58.186Z" transform="translate(683.651 2831.244)" fill="#ffb8b8"/><path d="M29.5.861,25.093,0,21.366,2.122s-10.315,14.1-10.164,26.9S0,165.412,0,165.412l23.411,10.205L40.9,78.752Z" transform="translate(683.448 2695.3)" fill="#2f2e41"/><path d="M3.4,60.682a3.384,3.384,0,0,0,2.258-.859L66.183,5.945A3.4,3.4,0,1,0,61.664.867L1.139,54.746A3.4,3.4,0,0,0,3.4,60.682Z" transform="translate(84.592 2858.789)" fill="#0c257a"/><path d="M3.4,60.674a3.384,3.384,0,0,0,2.258-.859L66.183,5.936A3.4,3.4,0,1,0,61.664.86L1.139,54.739A3.4,3.4,0,0,0,3.4,60.674Z" transform="translate(96.135 2871.766)" fill="#0c257a"/><path d="M0,37.694H10.757l1.92-10.156,4.918,10.156h28.53A6.413,6.413,0,0,0,49.768,26L26.985,10.267V0L3.022,1.43Z" transform="translate(476.252 3041.039)" fill="#2f2e41"/><path d="M0,27.3l8.632,6.419,7.6-7L14.119,37.8,37.012,54.82a6.413,6.413,0,0,0,9.9-7.207L38.02,21.391l6.126-8.239L24.063,0Z" transform="translate(373.194 3022.647)" fill="#2f2e41"/><path d="M40.886,5.667H37.317L23.383,0,15.915,5.666A15.915,15.915,0,0,0,0,21.58V22.1H40.885Z" transform="translate(714.831 3095.558)" fill="#2f2e41"/><path d="M36.767,1.672l-3.481.786L18.446,0,12.409,7.172h0A15.915,15.915,0,0,0,.391,26.2l.114.5,39.881-9Z" transform="translate(668.82 3090.951)" fill="#2f2e41"/><path d="M0,22.1l40.885,0V21.58A15.915,15.915,0,0,0,24.972,5.666h0L17.5,0,3.569,5.667H0Z" transform="translate(258.693 3094.993)" fill="#2f2e41"/><path d="M0,22.1l40.885,0V21.58A15.915,15.915,0,0,0,24.972,5.666h0L17.5,0,3.569,5.667H0Z" transform="translate(194.088 3094.993)" fill="#2f2e41"/></g></svg>