<svg xmlns="http://www.w3.org/2000/svg" xmlns:xlink="http://www.w3.org/1999/xlink" width="1920" height="540.132" viewBox="0 0 1920 540.132"><defs><clipPath id="a"><rect width="1920" height="169" transform="translate(0 1186)" fill="#fff" stroke="#707070" stroke-width="1"/></clipPath></defs><g transform="translate(0 -814.868)"><path d="M652.053,703.1H56.758V320.213c63.781,12.82,123.111,49.189,159.814,103.054,26.043,38.2,41.412,83.508,71.594,118.549a179.983,179.983,0,0,0,122.188,61.362c42.872,3.046,86.668-9.422,128.525.349C589.8,615.423,625.381,656.3,652.053,703.1Z" transform="translate(-56.758 494.655)" fill="rgba(29,42,143,0.16)" opacity="0.45"/><path d="M1095,492.358V629.938H610.8c-15.225,0-41.316,5.167-55.743,0-68.214-24.472-75.647-153.91-42.992-206.607C558.37,348.6,673.8,337.66,741.2,388.016c36.062,26.943,62.613,69.367,105.871,81.8,46.474,13.353,94.528-12.844,142.772-15.751C1028.354,451.734,1066.1,466.977,1095,492.358Z" transform="translate(824.488 594.067)" fill="rgba(29,42,143,0.16)" opacity="0.45"/><g clip-path="url(#a)"><rect width="2038" height="180" rx="90" transform="translate(-57 1175.14)" fill="#eff0f7"/></g></g></svg>