<svg xmlns="http://www.w3.org/2000/svg" width="60.515" height="60.515" viewBox="0 0 60.515 60.515"><path d="M5.319,60.515H30.257A5.325,5.325,0,0,0,35.576,55.2V46.213H23.166a5.325,5.325,0,0,1-5.319-5.319V16.074a5.325,5.325,0,0,1,5.319-5.319h12.41V5.319A5.325,5.325,0,0,0,30.257,0H5.319A5.325,5.325,0,0,0,0,5.319V55.2A5.325,5.325,0,0,0,5.319,60.515Zm12.528-55.2A1.878,1.878,0,0,1,19.62,7.21a1.773,1.773,0,0,1-3.546,0A1.878,1.878,0,0,1,17.847,5.319Zm-1.773,44.44H19.62a1.773,1.773,0,1,1,0,3.546H16.074a1.773,1.773,0,0,1,0-3.546Z" fill="#1d2a8f"/><path d="M218.349,121H182.773A1.772,1.772,0,0,0,181,122.773v5.319h39.122v-5.319A1.772,1.772,0,0,0,218.349,121ZM181,147.593a1.772,1.772,0,0,0,1.773,1.773h35.576a1.772,1.772,0,0,0,1.773-1.773V131.637H181Zm26.593-12.41h3.546a1.773,1.773,0,0,1,0,3.546h-3.546a1.773,1.773,0,0,1,0-3.546Z" transform="translate(-159.607 -106.699)" fill="#1d2a8f"/></svg>