<svg xmlns="http://www.w3.org/2000/svg" xmlns:xlink="http://www.w3.org/1999/xlink" width="934" height="1202" viewBox="0 0 934 1202"><defs><clipPath id="a"><rect width="934" height="1202" transform="translate(0 2258)" fill="#fff" stroke="#707070" stroke-width="1"/></clipPath></defs><g transform="translate(0 -2258)" clip-path="url(#a)"><path d="M991.415,921.381H56.758V320.213c100.141,20.128,193.294,77.23,250.92,161.8,40.89,59.974,65.02,131.113,112.407,186.131C468,723.8,538.644,759.3,611.929,764.488c67.312,4.782,136.075-14.794,201.794.548C893.679,783.714,949.538,847.894,991.415,921.381Z" transform="translate(-57.202 1937.407)" fill="rgba(29,42,143,0.16)" opacity="0.45"/><path d="M991.416,320.213H56.758V921.381c100.141-20.128,193.294-77.23,250.92-161.8,40.89-59.974,65.02-131.113,112.407-186.131C468,517.8,538.644,482.3,611.929,477.106c67.312-4.782,136.075,14.794,201.794-.548C893.679,457.88,949.538,393.7,991.416,320.213Z" transform="translate(-57.202 2538.576)" fill="rgba(29,42,143,0.16)" opacity="0.45"/></g></svg>