<svg xmlns="http://www.w3.org/2000/svg" xmlns:xlink="http://www.w3.org/1999/xlink" width="530" height="345" viewBox="0 0 530 345"><defs><clipPath id="a"><rect width="530" height="345" transform="translate(-100)" fill="#fff" stroke="#707070" stroke-width="1"/></clipPath><linearGradient id="b" y1="0.5" x2="1" y2="0.5" gradientUnits="objectBoundingBox"><stop offset="0" stop-color="#1d2a8f"/><stop offset="0.005" stop-color="#1d2a8f"/><stop offset="0.991" stop-color="#2c5ca5"/><stop offset="1" stop-color="#ff7600"/></linearGradient><linearGradient id="c" y1="0.5" x2="1" y2="0.5" gradientUnits="objectBoundingBox"><stop offset="0" stop-color="#1d2a8f"/><stop offset="0.005" stop-color="#1d2a8f"/><stop offset="1" stop-color="#1d2a8f"/></linearGradient></defs><g transform="translate(100)" clip-path="url(#a)"><path d="M473.395,330.077c-2.746,25.057-30.944,39.273-56.071,41.332-43.633,3.559-86.477-15.472-121.491-41.762s-63.9-59.722-95.109-90.444c-31.583-31.595-63.829-52.847-107.137-63.747-12.227-3.07-24.894-5.793-36.829-9.957V33.571H285.282c14.214,10.214,25.347,23.393,30.7,40.4,6.329,20.112,3.07,41.809,4.211,62.864,2.769,51.265,34.049,100.076,79.486,124.016,15.983,8.434,33.548,13.983,48.45,24.219S475.36,312.105,473.395,330.077Z" transform="translate(-209.906 -33.571)" fill="url(#b)"/><path d="M948.682,104.769V291.311c-25.823-26.182-59.838-45.655-96.4-55.087-68.09-17.572-142.556-3.274-203.928,29.755-48.987,26.371-91.54,64.413-144.788,81.877-33.674,11.049-80.674,7.439-92.6-24.431-10.851-28.986,17.059-58.955,47.212-70.261s64.14-12.1,93.145-25.847C589.114,209.407,612.25,172.78,643,145.3c49.228-44.011,118.3-63.9,185.906-66.07C870.052,77.911,914.607,84.623,948.682,104.769Z" transform="translate(-270.773 -8.25)" fill="url(#c)"/></g></svg>