<svg xmlns="http://www.w3.org/2000/svg" width="59.829" height="59.829" viewBox="0 0 59.829 59.829"><g transform="translate(-0.529 -0.528)"><path d="M11.5.528A3,3,0,0,0,8.507,3.516V8.5H52.373V3.516A3,3,0,0,0,49.388.528Zm1.994,3.987a.995.995,0,1,1-.995.995.995.995,0,0,1,.995-.995Zm3.991,0a.995.995,0,1,1-.995.995.995.995,0,0,1,.995-.995Zm3.987,0a.995.995,0,1,1-.995.995.995.995,0,0,1,.995-.995Zm13.906,0H47.394a1,1,0,0,1,0,2H35.426A1,1,0,0,1,35.377,4.515ZM3.517,6.509a3.007,3.007,0,0,0-2.988,3V45.4a3,3,0,0,0,2.988,2.988H57.362a3.007,3.007,0,0,0,3-2.988V9.5a3.015,3.015,0,0,0-3-3H54.378V8.5h2.985a.98.98,0,0,1,1,1V38.417H2.519V9.5a.98.98,0,0,1,1-1h3v-2ZM8.507,10.5V36.423H52.373V10.5Zm24.94,3.976a1,1,0,0,1,.935,1.327L28.4,33.751a1,1,0,0,1-1.9-.633L32.49,15.173a1,1,0,0,1,.961-.7Zm5.615,4.232,5.973,4.99a1,1,0,0,1,0,1.53l-5.977,4.986a1,1,0,1,1-1.281-1.53l5.065-4.221-5.061-4.221a1,1,0,1,1,1.278-1.534ZM22.443,18.47a1,1,0,0,1,.659,1.771l-5.065,4.221,5.069,4.225a1,1,0,1,1-1.274,1.53l-5.984-4.99a1,1,0,0,1,0-1.53l5.977-4.99a1,1,0,0,1,.611-.237ZM32.43,42.4a1,1,0,0,1,0,2H28.446a1,1,0,1,1-.019-2Zm-8.317,7.982a8.207,8.207,0,0,1-1.093,2H37.86a8.207,8.207,0,0,1-1.093-2ZM19.47,54.373a3,3,0,0,0-2.992,2.988v2a1,1,0,0,0,1,1H43.4a1,1,0,0,0,.995-1v-2a3,3,0,0,0-2.988-2.985Z" fill="#1d2a8f"/></g></svg>