<svg xmlns="http://www.w3.org/2000/svg" width="892.681" height="673.442" viewBox="0 0 892.681 673.442"><g transform="translate(-32.859 -3696.837)"><g transform="translate(229.103 3696.837)"><path d="M48.171,60.258c9.051,8.035,20.787,10.149,26.213,4.722s2.488-16.34-6.563-24.375a31.61,31.61,0,0,0-12.675-7.012L16.342,0,0,17.494,39.988,48.753a29.269,29.269,0,0,0,8.183,11.5Z" transform="translate(292.112 253.606)" fill="#ffb6b6"/><g transform="translate(131.807 591.571)"><path d="M0,67.989l18.706,0L27.609,0,0,0Z" transform="translate(4.324)" fill="#ffb6b6"/><path d="M61.607,17.622l-12.965-1.5L25.252,0,22.021,5.516C11.063,15.841,3.73,9.249,3.73,9.249-2.17,17.667.7,24.5.7,24.5V26.77a4.212,4.212,0,0,0,4.331,4.081H62.958a6.174,6.174,0,0,0,6.349-5.982c0-1.075-.307-4.058-.89-4.982-1.459-2.315-3.974-1.935-6.81-2.264Z" transform="translate(0 47.703)" fill="#2f2e41"/></g><g transform="translate(0 582.703)"><path d="M0,66.845l18.392,3.217L40.316,4.749,13.172,0Z" transform="translate(4.901 0)" fill="#ffb6b6"/><path d="M61.733,23.581,49.278,19.872,29.4,0,25.159,4.867C12.385,13.133,6.453,5.39,6.453,5.39-.98,12.652.514,19.861.514,19.861l-.44,2.234a4.1,4.1,0,0,0,3.468,4.758L60.5,36.82a6.334,6.334,0,0,0,7.4-4.789c.208-1.057.484-4.043.091-5.052-.986-2.528-3.532-2.587-6.257-3.4Z" transform="translate(0 50.5)" fill="#2f2e41"/></g><path d="M46.077,7.509,0,298.2l42.893,5.272,74.6-230.2L126.815,310.5h39.978s34.53-261.83,24.317-293.461S46.077,7.509,46.077,7.509Z" transform="translate(4.662 316.054)" fill="#2f2e41"/><path d="M101.638,0H56.88L50.353,14.937S24.244,28.995,24.244,34.266,8.392,172.21,8.392,172.21L0,245.136s97.908,46.567,146.4-.879l-9.325-80.833S144.531,36.9,140.8,31.63s-31.7-17.572-31.7-17.572Z" transform="translate(48.488 90.592)" fill="#0c257a"/><path d="M10.176.873S-3.464,20.3.84,28.286s71.471,84.67,71.471,84.67l81.041,62.885,23.754-19.863L100.772,87.365,51.45,18.826C43.6,4.718,26.663-2.65,10.176.873Z" transform="translate(153.949 112.388)" fill="#0c257a"/><g transform="translate(9.786 113.559)"><path d="M.437,61.591C-1.512,73.163,3.244,83.492,11.06,84.66S26.79,77.394,28.739,65.822A27.71,27.71,0,0,0,27.749,52l7.6-49.133L10.806,0,5.916,48.74A28.415,28.415,0,0,0,.437,61.591Z" transform="translate(0 190.568)" fill="#ffb6b6"/><path d="M94.75,1.624S56.156-6.515,49.145,13.652,0,225.112,0,225.112l32.1,3.349L56.2,97.405Z" transform="translate(1.151 0)" fill="#0c257a"/></g><path d="M0,36.259C0,56.285,17.229,72.519,38.481,72.519S76.962,56.285,76.962,36.259,59.733,0,38.481,0,0,16.234,0,36.259Z" transform="translate(87.732 8.292)" fill="#ffb6b6"/><path d="M22.37,75.339c2.467.113,5.724-.33,6.138-2.625C28.8,71.1,27.35,69.7,25.986,68.677a44.668,44.668,0,0,1-5.541-4.449A9.338,9.338,0,0,1,17.523,58.1a5.5,5.5,0,0,1,3.741-5.344c2.324-.666,5.224.962,5.259,3.252,2.241-3.207,2.539-7.247,2.656-11.085q.1-3.369.091-6.739c-.011-3.069-.093-6.138-.176-9.207,1.6-.079,14.527,4.5,16.392,4.5,1.6,0,14.49-2.41,13.632-5.869.252,2.211,12.544,6.193,12.8,5.036s1.167-2.378,2.419-2.309c1.319.073,2.036,1.45,2.48,2.623.99,2.618,3.4,7.144,5.972,5.791,19.506-10.236,3.778-13.424,1.468-17.587-2.84-5.117-5.87-10.441-10.926-13.705S64.281.3,60.3,4.688C50.309-2.173,40.4-.518,28.754,3.395S7.8,16.88,4.669,28.15C3.235,33.315-.605,35.582,2.256,40.19-.9,44.175.811,41.92.188,46.857a17.8,17.8,0,0,0,1.97,11.42c2.19,3.647,6.065,6.185,10.209,7.705s4.86,9.159,9.262,9.757" transform="translate(81.328 0)" fill="#2f2e41"/></g><path d="M101.189,146.6a3.972,3.972,0,0,1-3.067-6.912l.29-1.086-.115-.261c-3.9-8.754-17.1-8.694-20.964.073-3.429,7.781-7.794,15.576-8.869,23.8a29.9,29.9,0,0,0,.59,10.9,120.878,120.878,0,0,1-12.262-52.754A115.6,115.6,0,0,1,57.6,106.68q.669-5.584,1.855-11.089A125.343,125.343,0,0,1,86.494,41.135,35.2,35.2,0,0,0,101.587,26.38a25.056,25.056,0,0,0,2.517-7.128c-.735.091-2.77-10.453-2.216-11.1-1.024-1.464-2.857-2.192-3.975-3.621C92.352-2.574,84.689-1.333,80.689,8.322c-8.546,4.064-8.628,10.8-3.385,17.286,3.336,4.124,3.794,9.7,6.721,14.119-.3.363-.614.715-.916,1.078A128.5,128.5,0,0,0,68.785,62.189a50.9,50.9,0,0,0-3.406-24.97c-3.26-7.411-9.371-13.652-14.752-20.059-6.464-7.7-19.718-4.337-20.857,5.418q-.017.142-.032.283,1.2.637,2.347,1.353c4.363,2.719,2.855,9.092-2.314,9.844l-.117.017a51.013,51.013,0,0,0,1.506,8.047c-6.9,25.156,8,34.319,29.282,34.731.47.227.928.454,1.4.67a125.425,125.425,0,0,0-7.54,33.437,117.989,117.989,0,0,0,.1,20.214l-.036-.238a32.764,32.764,0,0,0-11.985-19.1c-9.223-7.139-22.254-9.768-32.2-15.506-4.79-2.762-10.927.807-10.092,6.04l.041.251a39.631,39.631,0,0,1,4.324,1.963q1.2.637,2.347,1.353c4.363,2.719,2.855,9.092-2.314,9.844l-.117.017-.241.034a53.587,53.587,0,0,0,10.515,15.515c4.317,21.961,22.857,24.044,42.688,17.649h.012A126.851,126.851,0,0,0,66.74,174.87h33.606c.121-.352.229-.715.337-1.067a40.482,40.482,0,0,1-9.3-.522c2.493-2.883,4.987-5.789,7.48-8.671a2,2,0,0,0,.157-.17c1.265-1.475,2.542-2.94,3.806-4.415v0a49.812,49.812,0,0,0-1.64-13.426Z" transform="translate(40.441 4192.693)" fill="#f2f2f2"/><path d="M890.462,0H2.219A2.152,2.152,0,0,0,0,2.091,2.152,2.152,0,0,0,2.219,4.182H890.462a2.152,2.152,0,0,0,2.219-2.091A2.152,2.152,0,0,0,890.462,0Z" transform="translate(32.859 4366.097)" fill="#ccc"/><path d="M152.834,308.92l.253-3.508a170.234,170.234,0,0,1-21.682-2.792l-.756,3.442A174.66,174.66,0,0,0,152.834,308.92Zm22.415-.312a215.524,215.524,0,0,0,22.111-3.019l-.741-3.446a211,211,0,0,1-21.705,2.964Zm-66.165-8.235,1.251-3.312a165.255,165.255,0,0,1-20.066-8.23l-1.719,3.12a169.331,169.331,0,0,0,20.534,8.422Zm109.885-.221a173.064,173.064,0,0,0,20.7-8.017l-1.648-3.151a169.422,169.422,0,0,1-20.239,7.836Zm40.038-18.666a151.972,151.972,0,0,0,17.5-13.181l-2.537-2.578A148.13,148.13,0,0,1,256.9,278.585Zm-189.569-.515,2.154-2.869a160.33,160.33,0,0,1-16.965-13.025l-2.546,2.567A164.1,164.1,0,0,0,69.438,280.971Zm222.341-28.145a147.178,147.178,0,0,0,12.714-17.4l-3.216-1.781a143.626,143.626,0,0,1-12.408,16.98Zm-254.984-.6,2.892-2.221A152.524,152.524,0,0,1,27.05,233.161l-3.185,1.829a156.24,156.24,0,0,0,12.931,17.236Zm277.673-35.7a152.069,152.069,0,0,0,7.153-20l-3.606-.9a148.589,148.589,0,0,1-6.993,19.549Zm-300.923-.275,3.42-1.4a144.564,144.564,0,0,1-7.332-19.443l-3.591.947a148.075,148.075,0,0,0,7.5,19.9Zm312.379-40.425a156.355,156.355,0,0,0,1.447-21.048l-3.73,0a153.013,153.013,0,0,1-1.416,20.6ZM1.508,175.692l3.7-.474A144.469,144.469,0,0,1,3.73,154.643v-.317H0v.3a147.809,147.809,0,0,0,1.508,21.063Zm320.753-41.515,3.7-.446a154.9,154.9,0,0,0-4.263-20.709l-3.608.892A151.467,151.467,0,0,1,322.261,134.177Zm-317.014-.42a143.412,143.412,0,0,1,4.474-20.184l-3.59-.952a146.73,146.73,0,0,0-4.579,20.656Zm305.889-39.4,3.449-1.339a149.414,149.414,0,0,0-9.932-18.908l-3.22,1.774A145.63,145.63,0,0,1,311.137,94.356Zm-294.045-.2A148.469,148.469,0,0,1,27.2,75.886l-3.182-1.834a151.754,151.754,0,0,0-10.348,18.7ZM39.866,59.073A156.7,156.7,0,0,1,54.834,44.028l-2.542-2.572A160.468,160.468,0,0,0,36.978,56.849Zm249.2-.184,2.916-2.191a147.9,147.9,0,0,0-15.22-15.5l-2.544,2.571A144.223,144.223,0,0,1,289.067,58.889ZM71.829,31.028A163.312,163.312,0,0,1,90.542,20.321L88.829,17.2A167.08,167.08,0,0,0,69.68,28.155Zm185.348-.15,2.116-2.895a159.914,159.914,0,0,0-19.311-10.689l-1.657,3.149A155.859,155.859,0,0,1,257.177,30.878ZM218.1,12.565l1.193-3.33a191.173,191.173,0,0,0-21.6-5.473L196.95,7.2A187.273,187.273,0,0,1,218.1,12.565Zm-107.469-.441a167.5,167.5,0,0,1,21.1-5.524l-.749-3.442A171.4,171.4,0,0,0,109.391,8.81Zm64.617-7.917.341-3.5c-3.733-.323-7.572-.559-11.408-.7-3.63-.04-7.391.112-11.006.336l.244,3.508c3.535-.22,7.131-.33,10.689-.33,3.7.139,7.472.372,11.141.687Z" transform="translate(572.248 3869.136)" fill="#3f3d56"/></g></svg>