<svg xmlns="http://www.w3.org/2000/svg" width="38" height="38" viewBox="0 0 38.74 36.503"><path d="M0,18.252C0,28.332,8.672,36.5,19.37,36.5s19.37-8.172,19.37-18.252S30.068,0,19.37,0,0,8.172,0,18.252Z" transform="translate(0 0)" fill="#0c257a"/><path d="M0,11.426a7.047,7.047,0,0,0,.82.045,7.2,7.2,0,0,0,4.289-1.394A3.433,3.433,0,0,1,1.885,7.821a3.6,3.6,0,0,0,.645.056,3.561,3.561,0,0,0,.909-.114A3.311,3.311,0,0,1,.673,4.577V4.532a3.658,3.658,0,0,0,1.562.4A3.146,3.146,0,0,1,1.165.6a10.016,10.016,0,0,0,7.113,3.4,3.137,3.137,0,0,1,1-3.11,3.6,3.6,0,0,1,4.882.145A7.129,7.129,0,0,0,16.354.241a3.312,3.312,0,0,1-1.521,1.8,7.336,7.336,0,0,0,1.986-.513A6.816,6.816,0,0,1,15.1,3.214c.006.139.006.279.006.418a9.463,9.463,0,0,1-9.819,9.245A10.267,10.267,0,0,1,0,11.426Z" transform="translate(10.961 11.813)" fill="#fff"/></svg>